<svg enable-background="new 0 0 406 306" viewBox="0 0 406 306" xmlns="http://www.w3.org/2000/svg" xmlns:xlink="http://www.w3.org/1999/xlink"><linearGradient id="a"><stop offset=".01"/><stop offset=".08" stop-opacity=".69"/><stop offset=".21" stop-opacity=".32"/><stop offset="1" stop-opacity="0"/></linearGradient><linearGradient id="b" gradientTransform="matrix(1.0954 0 0 -1.0954 -63.4671 267.3154)" gradientUnits="userSpaceOnUse" x1="263.0894" x2="256.3294" xlink:href="#a" y1="41.2449" y2="189.0649"/><linearGradient id="c" gradientTransform="matrix(1.0954 0 0 -1.0954 -63.4671 267.3154)" gradientUnits="userSpaceOnUse" x1="261.9836" x2="257.8536" xlink:href="#a" y1="48.9042" y2="128.4942"/><linearGradient id="d" gradientTransform="matrix(1.0954 0 0 -1.0954 41.9214 360.8516)" gradientUnits="userSpaceOnUse" x1="165.613" x2="164.913" xlink:href="#a" y1="193.7444" y2="161.9244"/><linearGradient id="e" gradientTransform="matrix(1.0954 0 0 -1.0954 -63.4671 267.3154)" gradientUnits="userSpaceOnUse" x1="175.1501" x2="199.3001" xlink:href="#a" y1="100.0729" y2="100.0729"/><linearGradient id="f" gradientTransform="matrix(1.0954 0 0 -1.0954 -63.4672 267.3103)" gradientUnits="userSpaceOnUse" x1="170.4825" x2="187.1378" xlink:href="#a" y1="122.0061" y2="122.0061"/><linearGradient id="g" gradientTransform="matrix(1.0954 0 0 -1.0954 -63.4542 267.31)" gradientUnits="userSpaceOnUse" x1="170.4882" x2="212.5584" xlink:href="#a" y1="147.1316" y2="147.1316"/><linearGradient id="h" gradientTransform="matrix(1.0954 0 0 -1.0954 41.9214 360.8516)" gradientUnits="userSpaceOnUse" x1="157.8773" x2="202.3673" xlink:href="#a" y1="227.4535" y2="100.7535"/><linearGradient id="i" gradientTransform="matrix(1.0954 0 0 -1.0954 41.9214 360.8516)" gradientUnits="userSpaceOnUse" x1="165.7157" x2="162.8957" xlink:href="#a" y1="226.1948" y2="181.9948"/><linearGradient id="j"><stop offset=".01"/><stop offset=".13" stop-opacity=".69"/><stop offset=".25" stop-opacity=".32"/><stop offset="1" stop-opacity="0"/></linearGradient><linearGradient id="k" gradientTransform="matrix(1.0954 0 0 -1.0954 -63.4671 267.3154)" gradientUnits="userSpaceOnUse" x1="368.5364" x2="293.4564" xlink:href="#j" y1="153.9089" y2="203.0989"/><linearGradient id="l" gradientTransform="matrix(1.0954 0 0 -1.0954 41.9214 360.8516)" gradientUnits="userSpaceOnUse" x1="225.5955" x2="225.5455" xlink:href="#j" y1="257.3745" y2="243.6145"/><linearGradient id="m" gradientTransform="matrix(1.0954 0 0 -1.0954 41.9214 360.8516)" gradientUnits="userSpaceOnUse" x1="225.6546" x2="224.7847" xlink:href="#j" y1="254.0148" y2="240.0148"/><linearGradient id="n" gradientTransform="matrix(1.0954 0 0 -1.0954 41.9214 360.8516)" gradientUnits="userSpaceOnUse" x1="225.4714" x2="225.0014" xlink:href="#j" y1="250.2144" y2="238.9944"/><path d="m143.3 274.1c-3.6 1.6-7.4 5.1-6 8.8 15.9 5.8 33.2 5.8 50 5.7 40.9-.2 81.8-.4 122.7-.7 3.4 0 7-.1 10-1.7s5.1-5.4 3.8-8.5c-1.2-2.9-4.7-4.1-7.8-4.8-10.2-2.5-20.6-4.1-31.1-4.9-8.5-.7-18.2-1.2-23.7-7.8-2.1-2.5-3.3-5.6-5.5-8-12.8-14.4-42.9-8-53.8 4.3-16.6 18.7-37.9 8.6-58.6 17.6z" fill="#e2d80d" opacity=".18"/><path d="m183.3 162.1c-2.4 7-4.5 14.2-4.6 21.5 0 7.4 2.2 15 7.4 20.2 7.6 7.7 19.5 8.5 30.2 8.9l14.2.6c5.6.2 11.2.4 16.7-.7s10.9-3.8 14.2-8.2c2.2-3.2 3.6-6.8 4.3-10.6 3.9-18.7-2.4-38.7-14.2-53.7-3.4-4.6-7.6-8.5-12.3-11.7-7.9-5-31.4-12.6-39.2-4.1-3.5 3.8-5.7 11.6-8 16.3-3.2 7-6.1 14.2-8.7 21.5z" fill="#fff"/><path d="m190.6 158.2c-2 5.6-3.7 11.4-3.7 17.4s1.8 12.1 6 16.4c6.2 6.2 15.8 6.9 24.4 7.2l11.5.5c4.5.4 9.1.2 13.5-.6 4.4-.9 8.8-3 11.5-6.7 1.8-2.6 3-5.5 3.5-8.6 3.1-15.1-1.9-31.3-11.4-43.5-2.8-3.7-6.1-6.9-10-9.5-6.4-4.1-25.4-10.2-31.7-3.4-2.8 3.1-4.6 9.4-6.4 13.1-2.7 5.9-5.1 11.7-7.2 17.7z" fill="url(#b)"/><path d="m204.4 258c-1.1 1.9-2.3 3.7-3.4 5.7-1.6 3-2.7 6.5-1.6 9.7.1.6.4 1.1.9 1.5.6.4 1.2.6 1.9.7 2.2.3 4.5.5 6.7.5 3.1 0 6.4-.4 8.7-2.4 4.6-4.2 4.3-14.4 1.6-19.4-.5-1.3-1.8-2.2-3.2-2.2-2.1-.4-4.2-.5-6.3-.3-2.4.3-3 .8-3.8 3.1-.5 1-1 2.1-1.5 3.1z" fill="#e2d80d"/><path d="m210.4 258.4c.5.1 1.1.2 1.7.2 1.7.1 3.6.1 4.9-1.2s1.2-3 1.2-4.7v-6.4c0-4.2-4-3.7-7.1-3.1-.7.1-1.4.3-2 .8-1.1.9-1.2 2.4-1.3 3.8l-.2 6.8c-.1.8 0 1.6.4 2.4.5.8 1.4 1.4 2.4 1.4z" fill="#fdbaac"/><path d="m244.4 258c1.1 1.9 2.3 3.7 3.3 5.7 1.6 3 2.7 6.5 1.6 9.7-.1.6-.4 1.1-.9 1.5-.6.4-1.2.6-1.9.7-2.2.3-4.4.5-6.7.5-3.1 0-6.4-.4-8.7-2.4-4.6-4.2-4.3-14.4-1.7-19.4.2-.5.5-.9.9-1.3.7-.5 1.4-.8 2.3-.9 2.1-.4 4.2-.5 6.3-.3 2.3.3 3 .8 3.8 3.1.6 1 1.1 2.1 1.7 3.1z" fill="#e2d80d"/><path d="m238.4 258.4c-.5.1-1.1.2-1.7.2-1.7.1-3.6.1-4.9-1.2s-1.2-3-1.2-4.7v-6.4c0-4.2 4-3.7 7.1-3.1.7.1 1.4.3 2 .8 1.1.9 1.2 2.4 1.2 3.8l.2 6.8c.1.8 0 1.6-.3 2.4-.5.8-1.4 1.4-2.4 1.4z" fill="#fdbaac"/><path d="m235.4 92.1s13.4 5.8 14.9 7.1c1.4 1.2-2.4 81.4-2.7 85.3s-21.7 4.5-30.9 2.8c-6.2-1.3-12.2-3.1-18-5.5 0 0-2.9-82.9-1.1-84.3 1.8-1.5 19.5-6.9 19.5-6.9z" fill="#e2d80d"/><path d="m191.4 191.1c-1 3.7-1.6 7.8.3 11 1.3 2 3.2 3.5 5.4 4.3s4.5 1.3 6.9 1.5c14.4 1.6 28.9.8 43-2.3 2-.3 3.8-1.1 5.3-2.4 1.2-1.5 2-3.4 2.1-5.4.8-7-.6-14-4.1-20.1-.2-.5-.6-.9-1.1-1.2-.5-.2-1-.3-1.4-.2l-36.5.1c-2.6.1-5.3 0-7.9-.3-2-.2-4.4-1.5-5.8.2-3.3 3.7-4.9 10.2-6.2 14.8z" fill="#473f47"/><path d="m191.4 191.1c-1 3.7-1.6 7.8.3 11 1.3 2 3.2 3.5 5.4 4.3s4.5 1.3 6.9 1.5c14.4 1.6 28.9.8 43-2.3 2-.3 3.8-1.1 5.3-2.4 1.2-1.5 2-3.4 2.1-5.4.8-7-.6-14-4.1-20.1-.2-.5-.6-.9-1.1-1.2-.5-.2-1-.3-1.4-.2l-36.5.1c-2.6.1-5.3 0-7.9-.3-2-.2-4.4-1.5-5.8.2-3.3 3.7-4.9 10.2-6.2 14.8z" fill="url(#c)"/><path d="m234.9 248.8 2.1.2c6.5.6 9.1-4.9 9.7-11.3.2-1.3.5-2.7.7-4l4.3-24.8 2-11.5c.2-1.2.4-2.3.6-3.5.6-3.4-.4-6.6-1.1-10-.4-2-.9-4.3-2.5-5.6s-3.8-1.5-5.8-1.6c-5.4-.2-10.9-.5-16.2.8-.3 0-.6.2-.8.4-.1.3-.2.6-.1.9.4 5.1 1.2 10.3 1.1 15.4l-.9 41.4c-.7 6.3.4 12.5 6.9 13.2z" fill="#473f47"/><path d="m214.7 250.4-2.2.2c-6.5.6-9.1-4.9-9.7-11.3l-7-40.5c-.6-3.2-1-6.3-1.3-9.6-.3-2.2-.2-4.5.2-6.6.4-2.2 1.9-4.1 3.9-5.1 1.1-.4 2.2-.6 3.3-.6 3.7-.2 7.4-.1 11.1.5 1.3.1 2.6.6 3.7 1.3 1.1 1 1.8 2.4 2.2 3.8 1.1 3.2 2.5 6.6 2.2 10-.3 2.2-.4 4.3-.4 6.5l.3 14.3.5 23.5v.4c.8 6.3-.4 12.5-6.8 13.2z" fill="#473f47"/><path d="m327.1 165.8v2.4c0 1.9-1.5 3.5-3.4 3.5h-202.3c-1.9 0-3.5-1.5-3.5-3.5v-2.4c0-1.9 1.5-3.5 3.5-3.5h202.2c2 .1 3.5 1.6 3.5 3.5z" fill="#473f47"/><path d="m264.2 125.7s8.7 18.1 7.7 23c-.6 3.5-7.3 6.5-9.9 8.1s-5.3 3.5-8 4.6-5.8.7-8.6.6l-14.2-.5c-.7 0-1.6-.3-1.6-.9 0-.4.4-.7.7-1 1.1-.7 2.3-1.2 3.6-1.3 3.1-.2 6.1-.8 9-1.7l16.4-11.3-4-7.3z" fill="#fdbaac"/><path d="m198.4 97.1c-2.8 1.2-4.8 2.9-5.5 5.9-1.1 4.5-3.3 8.3-5.5 12.4-1.3 2.5-2.4 5.1-3.3 7.7-.4.8-.5 1.7-.4 2.6.2.7.5 1.3.9 1.8 2.5 3.5 5.2 7 7.9 10.4 1.7-.8 3.2-1.7 4.7-2.7.6-.9.4-3.1.4-4.2.2-2.2.3-4.4.4-6.6z" fill="#e2d80d"/><path d="m230.5 82.1c.1.5.2 1 .2 1.6.1 2.1-.1 4.3.6 6.3.2.7.6 1.4 1 2.1 1.5 2.4-.4 6.3-1.7 8.5-1.7 2.8-4.4 5.5-7.8 5.8-4.3.4-6.1-4.4-6.9-7.8-.5-1.9-.9-3.4-.1-5.3.7-1.9 1.9-3.8 2.5-5.8.5-2.3.8-4.7.8-7.1 0-.6.2-1.3.5-1.8.5-.7 1.3-1.3 2.2-1.4.9-.2 1.7-.2 2.6-.1 1.3 0 2.7.3 3.9 1 1.2 1 2 2.4 2.2 4z" fill="#fdbaac"/><path d="m218.6 85.7s1.7 10.9 6.4 8.9c4.6-2 5.8-8.2 5.8-8.2z" fill="#dea095"/><path d="m232.4 92s-4.1 12.6-8.4 14.3c0 0-1.2.8 2.2 2.4s11.5-8.8 9.6-15.8c-.4-1.8-1.8-3.3-3.6-3.8z" fill="#fff"/><path d="m216.2 90.8s-.6 9.1 3.5 14.9c0 0-1.3 2.4-2.6 2.6-1.3.1-5.2-7.3-4.4-13.2.4-3.5 2.8-5.2 3.5-4.3z" fill="#fff"/><path d="m212.6 61.4s.2 16.9 1.9 21.3 5.9 7.9 9.8 7.6 9.4-4.1 11.4-10.1c2.1-6 2.1-20.3 1.2-22.2-.8-1.9-5.2-7.6-15.5-5.8-6.9 1.2-9 6.6-8.8 9.2z" fill="#fdbaac"/><path d="m264.5 117c1.4 2 2.4 3.5 2.7 3.8.4.5.6 1 .8 1.6.1 1-.2 2.1-.9 2.9-1.5 2.2-3.8 3.7-5.7 5.5-2.2 2.2-4.2 4.6-5.9 7.2-1.3-.9-2.5-2.1-3.6-3.3-2.1-1.6-3.2-4.2-2.8-6.8l-.2-14.1-.1-7.1c0-1.2-1.6-6.7-.8-7.7 1.7-2.3 11.6 11.1 16.5 18z" fill="#e2d80d"/><path d="m210.4 67.6c-.1 0-.3 0-.4 0-.1.1-.2.2-.3.3-.4.8-.6 1.7-.4 2.6.2.7.5 1.4.8 2.1.4 1.1 1 2 1.9 2.7.2.1.4.2.6.2s.3-.1.4-.2c.6-.7.9-1.5.8-2.4.2-1.2 0-2.5-.6-3.6-.5-.9-1.6-1.6-2.8-1.7z" fill="#fdbaac"/><path d="m239.2 67.3h.4c.1.1.2.2.3.3.4.8.6 1.7.4 2.6-.2.7-.5 1.4-.8 2.1-.4 1.1-1 2-1.9 2.7-.2.1-.4.2-.6.2s-.3-.1-.4-.2c-.6-.7-.9-1.5-.8-2.4-.2-1.2 0-2.5.6-3.6.5-.9 1.6-1.5 2.8-1.7z" fill="#fdbaac"/><path d="m209.7 59.8c-.4-2.2-.4-4.7 1.1-6.3.3-.3.7-.6 1-.9s.8-1 1.3-1.5c2.6-2.8 6.2-4.4 10-4.3 3.7.1 7.4.8 11 2.1 2 .6 3.9 1.3 5.9 2.1.8.2 1.5.6 2 1.2.9 1 1.1 2.3.6 3.5-.3.9-1 1.7-1.3 2.7-.2.7-.2 1.5-.2 2.3-.1 2-.6 4-1.6 5.8-.5 1.1-1.4 2.1-2.5 2.7.1-2.7-.3-5.5-1.1-8.1-2.3 1.9-5.1 3-8.1 3.3s-5.9-.1-8.8-1c-.7-.3-1.5-.4-2.2-.3-.7.2-1.3 1.1-.9 1.7-.6-.4-1.4-.2-1.7.4s-.5 1.2-.4 1.9l-.2 4.2c-2.5-3.1-3.3-7.7-3.9-11.5z" fill="#fc682d"/><path d="m183.7 125.7c-1.8 3.7-3.5 7.6-4.9 11.4-1.1 2.7-2 5.5-2.6 8.3-.2 1.1-.8 2.6-.4 3.7.6 1.7 3.2 3 4.6 3.9 4.6 2.8 9.4 5.3 14.4 7.5 1.9.9 4 1.6 6 2 1.6.2 3.3.2 5 .1l9.5-.3c.9 0 2-.3 2.1-1.2 0-.6-.5-1.1-1-1.4-1.7-1.1-3.5-1.9-5.5-2.4-1.9-.5-4.2-.2-6-.8-2-.7-4.3-3-6-4.2l-10.2-7.1 4-7.3z" fill="#fdbaac"/><path d="m249.9 158.5h-53.3l-4.7-35.9 61.7.9z" fill="#e2d80d"/><path d="m135.2 162.4-1.5 9.3-17.7 109c-.2 1.4-1.3 2.6-2.7 2.8-1.2 0-2.1-1.2-1.8-2.8l17.7-109 1.5-9.3z" fill="#473f47"/><path d="m311.6 162.4 1.5 9.3 17.7 109c.2 1.4 1.3 2.6 2.7 2.8 1.2 0 2.1-1.2 1.8-2.8l-17.7-109-1.5-9.3z" fill="#473f47"/><path d="m196.3 158.5h53.6v3.9h-53.6z" fill="#e2d80d"/><path d="m196.3 158.5h53.6v3.9h-53.6z" fill="url(#d)"/><path d="m204.7 238.5c-1.5 1.2-2.1 3.2-1.4 5 .7 1.1 1.8 2 3.1 2.4 4.4 1.9 9.1 2.6 13.8 2.2.4 0 .8-.1 1.1-.3.4-.3.6-.7.7-1.1.7-1.7.9-3.6.6-5.5-.1-1.2-.6-2.4-1.5-3.3-1.1-.7-2.3-1.1-3.6-1.1-4.4-.4-9-1.5-12.8 1.7z" fill="none"/><g fill="#e2d80d"><path d="m154.8 162.4h-26.5c2.6-7.3 10.6-11.1 17.9-8.6 4.1 1.4 7.2 4.6 8.6 8.6z"/><path d="m124.6 110.9c1-.4 2.2.2 2.5 1.3l14.2 41.7c.4 1-.2 2.2-1.3 2.5-1 .4-2.2-.2-2.5-1.3l-14.2-41.7c-.3-1 .3-2.1 1.3-2.5z"/><path d="m123.4 113.4c-.3-1.1.3-2.2 1.3-2.5l42.1-13.2c1.1-.3 2.2.3 2.5 1.3.3 1.1-.3 2.2-1.3 2.5l-42.1 13.2c-1.1.3-2.2-.3-2.5-1.3z"/></g><path d="m154.8 162.4h-26.5c2.6-7.3 10.6-11.1 17.9-8.6 4.1 1.4 7.2 4.6 8.6 8.6z" fill="url(#e)"/><path d="m124.6 110.9c1-.4 2.2.2 2.5 1.3l14.2 41.7c.4 1-.2 2.2-1.3 2.5-1 .4-2.2-.2-2.5-1.3l-14.2-41.7c-.3-1 .3-2.1 1.3-2.5z" fill="url(#f)"/><path d="m123.4 113.4c-.3-1.1.3-2.2 1.3-2.5l42.1-13.2c1.1-.3 2.2.3 2.5 1.3.3 1.1-.3 2.2-1.3 2.5l-42.1 13.2c-1.1.3-2.2-.3-2.5-1.3z" fill="url(#g)"/><path d="m184.6 103c-3.4 4.9-7.4 8-9.1 7.1-.1 0-.2-.1-.2-.1l-.2-.1c-5-3.5-9.7-12.8-6.1-17.8 3.5-5 13.8-3.9 18.9-.4l.2.2c.1 0 .1.1.2.2 1.3 1.1-.3 6-3.7 10.9z" fill="#e2d80d"/><path d="m184.6 103c-3.4 4.9-7.4 8-9.1 7.1l-.2-.1s0 0-.1-.1c-1.5-1.2 0-6.1 3.5-11.1s7.6-8.1 9.2-7.1h.1l.1.1c1.5 1.4-.1 6.3-3.5 11.2z" fill="#e2d80d"/><path d="m184.6 103c-3.4 4.9-7.4 8-9.1 7.1l-.2-.1s0 0-.1-.1c-1.5-1.2 0-6.1 3.5-11.1s7.6-8.1 9.2-7.1h.1l.1.1c1.5 1.4-.1 6.3-3.5 11.2z" fill="#fff"/><path d="m291.2 125.7h6.4c1.5 0 2.7 1.2 2.7 2.7v31.6c0 1.5-1.2 2.7-2.7 2.7h-6.4c-1.5 0-2.7-1.2-2.7-2.7v-31.7c.1-1.4 1.2-2.6 2.7-2.6z" fill="#e2d80d"/><path d="m302.6 126 6.4-.4c1.5-.1 2.7 1 2.8 2.5l2.2 31.6c.1 1.5-1 2.7-2.5 2.8l-6.4.4c-1.5.1-2.7-1-2.8-2.5l-2.2-31.6c-.1-1.5 1-2.7 2.5-2.8z" fill="#e2d80d"/><path d="m249.9 158.5h-53.3l-4.7-35.9 61.8.9z" fill="url(#h)"/><path d="m194.3 120.8-2.4 1.8 61.8.9-2.1-2.1z" fill="url(#i)"/><path d="m306.8 61.7c-.3 4-2 7.8-4.8 10.6-2.5 2.5-4.3 5.6-5.1 9-.2 1-.4 2.1-.6 3.3h-15.3c-.1-.8-.2-1.6-.3-2.3-.6-3.3-2.2-6.3-4.5-8.8-2-2.1-3.6-4.5-4.7-7.2-3.4-9.6 1.5-20.1 11.1-23.5 1-.4 2.1-.6 3.2-.8.5-.1 1-.1 1.4-.2 10.1-.8 18.9 6.6 19.7 16.7 0 1.1 0 2.2-.1 3.2z" fill="#fff"/><path d="m303.8 61.7c-.3 4-2 7.8-4.8 10.6-2.5 2.5-4.3 5.6-5.1 9-.2 1-.4 2.1-.6 3.3h-12.3c-.1-.8-.2-1.6-.3-2.3-.6-3.3-2.2-6.3-4.5-8.8-2-2.1-3.6-4.5-4.7-7.2-3.4-9.6 1.5-20.1 11.1-23.5 1-.4 2.1-.6 3.2-.8.5-.1 1-.1 1.4-.2 10.1.8 17.5 9.6 16.7 19.7-.1.1-.1.2-.1.2z" fill="url(#k)"/><g fill="#e2d80d"><path d="m281.4 84.6h15.2c1.1 0 2 .9 2 2s-.9 2-2 2h-15.2c-1.1 0-2-.9-2-2s.9-2 2-2z"/><path d="m281.9 87.9h13.6c1 0 1.8.8 1.8 1.8s-.8 1.8-1.8 1.8h-13.6c-1 0-1.8-.8-1.8-1.8s.8-1.8 1.8-1.8z"/><path d="m282.8 90.9h11.8c.9 0 1.5.7 1.5 1.5 0 .9-.7 1.5-1.5 1.5h-11.8c-.9 0-1.5-.7-1.5-1.5-.1-.8.6-1.5 1.5-1.5z"/></g><path d="m281.4 84.6h15.2c1.1 0 2 .9 2 2s-.9 2-2 2h-15.2c-1.1 0-2-.9-2-2s.9-2 2-2z" fill="url(#l)"/><path d="m281.9 87.9h13.6c1 0 1.8.8 1.8 1.8s-.8 1.8-1.8 1.8h-13.6c-1 0-1.8-.8-1.8-1.8s.8-1.8 1.8-1.8z" fill="url(#m)"/><path d="m282.8 90.9h11.8c.9 0 1.5.7 1.5 1.5 0 .9-.7 1.5-1.5 1.5h-11.8c-.9 0-1.5-.7-1.5-1.5-.1-.8.6-1.5 1.5-1.5z" fill="url(#n)"/><path d="m284.8 84.5c-.1-2.8-.5-5.6-1.1-8.3-.5-2.3-.8-4.6-1-6.9-.2-3.5.4-5.9 2.1-7.5.3-.3.7-.5 1.1-.5.5 0 .9.2 1.2.5.1-.1.1-.1.2-.2.3-.4.7-.6 1.1-.8.4-.1.9-.1 1.3.2.3.2.5.4.7.7.5-.3 1-.4 1.6-.3 1 .3 1.7 1.2 2 2.7.7 3.7-.1 7.4-.8 11-.8 3-1.1 6.1-1 9.2l-1.1.1c-.1-3.2.2-6.4 1-9.5.8-3.6 1.5-7 .8-10.5-.1-.6-.4-1.7-1.2-1.9-.3 0-.5 0-.8.2.1.2.1.4.2.6.3 1.1.4 2.2.4 3.3 0 .4-.1.7-.4.9-.2.2-.6.3-.8.2-.5-.2-.9-.7-1-1.2-.3-1-.4-2.1-.2-3.2.1-.3.2-.6.4-.9-.1-.2-.3-.3-.5-.5-.1-.1-.3-.1-.4-.1-.2.1-.4.2-.6.4-.1.1-.2.2-.2.3.9 1.2 1.3 2.8 1.1 4.3-.1.8-.6 1.5-1.3 1.5-.6-.1-1-.4-1.2-1-.7-1.5-.6-3.2.1-4.6h-.1c-.3-.3-.4-.3-.5-.3-.2 0-.3.1-.4.2-1.4 1.3-2 3.5-1.8 6.6.2 2.3.5 4.5 1 6.7.6 2.8 1 5.7 1.1 8.5zm2.5-20.8c-.4 1-.3 2.2.1 3.2.1.1.1.2.2.3.1-.1.2-.3.2-.5.2-1 0-2-.5-3zm2.8.1c-.1.8 0 1.6.3 2.4-.1-.8-.1-1.6-.3-2.4z" fill="#e2d80d"/></svg>