<?xml version="1.0" encoding="utf-8"?>
<!-- Generator: Adobe Illustrator 25.3.1, SVG Export Plug-In . SVG Version: 6.00 Build 0)  -->
<svg version="1.1" id="Layer_1" xmlns="http://www.w3.org/2000/svg" xmlns:xlink="http://www.w3.org/1999/xlink" x="0px" y="0px"
	 viewBox="0 0 406 306" style="enable-background:new 0 0 406 306;" xml:space="preserve">
<style type="text/css">
	.st0{fill:#E2D80D;}
	.st1{fill:url(#SVGID_1_);}
	.st2{fill:url(#SVGID_2_);}
	.st3{fill:#4C506D;}
	.st4{fill:url(#SVGID_3_);}
	.st5{fill:#3E3E54;}
	.st6{fill:url(#SVGID_4_);}
	.st7{fill:url(#SVGID_5_);}
	.st8{fill:url(#SVGID_6_);}
	.st9{fill:url(#SVGID_7_);}
	.st10{fill:url(#SVGID_8_);}
	.st11{fill:#FFFFFF;}
	.st12{fill:url(#SVGID_9_);}
	.st13{fill:url(#SVGID_10_);}
	.st14{fill:url(#SVGID_11_);}
	.st15{fill:#DD8049;}
	.st16{fill:url(#SVGID_12_);}
	.st17{fill:#606161;}
	.st18{fill:url(#SVGID_13_);}
	.st19{fill:url(#SVGID_14_);}
	.st20{fill:url(#SVGID_15_);}
	.st21{fill:#FBB03B;}
	.st22{fill:url(#SVGID_16_);}
	.st23{fill:url(#SVGID_17_);}
	.st24{fill:url(#SVGID_18_);}
	.st25{fill:#A67C52;}
	.st26{fill:url(#SVGID_19_);}
	.st27{opacity:0.5;fill:url(#SVGID_20_);enable-background:new    ;}
</style>
<path class="st0" d="M353.3,236.5v54.1c-1.5,1.1-3,2.1-4.6,3.1c-14,8.6-30.2,11.9-46.7,12.3c-10.4-0.3-20.7-1.4-30.9-3.3l-6-1.1
	c-2-0.4-4-0.8-6-1.2v-63.9H353.3z"/>
<linearGradient id="SVGID_1_" gradientUnits="userSpaceOnUse" x1="265.9157" y1="637.2176" x2="299.3257" y2="753.9676" gradientTransform="matrix(1.0632 0 0 1.0632 1.5033 -485.7732)">
	<stop  offset="1.000000e-02" style="stop-color:#000000"/>
	<stop  offset="8.000000e-02" style="stop-color:#000000;stop-opacity:0.69"/>
	<stop  offset="0.21" style="stop-color:#000000;stop-opacity:0.32"/>
	<stop  offset="1" style="stop-color:#000000;stop-opacity:0"/>
</linearGradient>
<path class="st1" d="M353.3,236.5v54.1c-1.5,1.1-3,2.1-4.6,3.1c-14,8.6-30.2,11.9-46.7,12.3c-10.4-0.3-20.7-1.4-30.9-3.3l-6-1.1
	c-2-0.4-4-0.8-6-1.2v-63.9H353.3z"/>
<polygon class="st0" points="308.8,228.9 260.5,228.9 251.7,191.5 300,191.5 "/>
<polygon class="st0" points="306.2,228.9 257.9,228.9 249.1,191.5 297.4,191.5 "/>
<linearGradient id="SVGID_2_" gradientUnits="userSpaceOnUse" x1="228.8109" y1="616.585" x2="287.9409" y2="689.225" gradientTransform="matrix(1.0632 0 0 1.0632 1.5033 -485.7732)">
	<stop  offset="1.000000e-02" style="stop-color:#000000"/>
	<stop  offset="8.000000e-02" style="stop-color:#000000;stop-opacity:0.69"/>
	<stop  offset="0.21" style="stop-color:#000000;stop-opacity:0.32"/>
	<stop  offset="1" style="stop-color:#000000;stop-opacity:0"/>
</linearGradient>
<polygon class="st2" points="306.2,228.9 257.9,228.9 249.1,191.5 297.4,191.5 "/>
<path class="st0" d="M207.4,94.6H348c8.3,0,15,6.7,15,15v78.6c0,8.3-6.7,15-15,15H207.4c-8.3,0-15-6.7-15-15v-78.6
	C192.3,101.3,199.1,94.6,207.4,94.6z"/>
<path class="st3" d="M203.8,94.6h140.6c8.3,0,15,6.7,15,15v78.6c0,8.3-6.7,15-15,15H203.8c-8.3,0-15-6.7-15-15v-78.6
	C188.8,101.3,195.5,94.6,203.8,94.6z"/>
<linearGradient id="SVGID_3_" gradientUnits="userSpaceOnUse" x1="231.3142" y1="576.6288" x2="278.6142" y2="681.9288" gradientTransform="matrix(1.0632 0 0 1.0632 1.5033 -485.7732)">
	<stop  offset="1.000000e-02" style="stop-color:#000000"/>
	<stop  offset="8.000000e-02" style="stop-color:#000000;stop-opacity:0.69"/>
	<stop  offset="0.21" style="stop-color:#000000;stop-opacity:0.32"/>
	<stop  offset="1" style="stop-color:#000000;stop-opacity:0"/>
</linearGradient>
<path class="st4" d="M359.4,181.7v6.5c0,8.3-6.7,15-15,15l0,0H203.8c-8.3,0-15-6.7-15-15c0,0,0,0,0,0l0,0v-6.5H359.4z"/>
<path class="st5" d="M201,279.7c0.1,3.9-0.7,7.8-2.2,11.5h-0.2c-4.2-0.1-8.3,0-12.5,0.3c-6.9,0.6-13.8,1.5-20.6,2.9
	c-3.2,0.6-6.3,1.2-9.4,1.9s-6,1.2-9,1.8c-5.7,1.1-11.2,2.1-16.5,2.8c-6.9-2.9-13.1-7.3-18.1-12.9c-0.5-0.6-1.1-1.2-1.6-1.8
	c-0.6-0.8-1.3-1.7-1.8-2.6c-1.7-2.5-2.9-5.4-3.3-8.4c-0.1-1.2-0.1-2.5,0.1-3.7c0.8-4.2,3.8-7.5,7.3-10.1c0.4-0.3,0.7-0.6,1.1-0.8
	c7.6-5.3,16.7-7.9,25.9-7.5c0.8,0,1.5,0.1,2.3,0.1c4.9,0.4,9.8,1.2,14.6,2.5c7.6,1.9,15.1,4.6,22.6,7c5.5,1.5,10.8,3.7,15.7,6.7
	c1.4,0.9,2.6,2.1,3.6,3.4C200.3,274.9,201,277.3,201,279.7z"/>
<path class="st5" d="M198.6,291.1c-4.2-0.1-8.3,0-12.5,0.3c-6.9,0.6-13.8,1.5-20.6,2.9c-3.2,0.6-6.3,1.2-9.4,1.9s-6,1.2-9,1.8
	c-16.1,3.1-31,6.7-47.5,3.7c-1-0.1-1.9-0.4-2.8-1c-1-0.9-1.7-2-2-3.3c-2.3-7.3-1.7-15.2,1.7-22c4-8,10.5-11.1,17.9-14.9
	c8.6-4.4,15.9-7.7,25.9-7.4c0.8,0,1.5,0.1,2.3,0.1c4.9,0.4,9.8,1.2,14.5,2.5c7.4,1.9,15,4.6,22.3,7c5.5,1.5,10.8,3.7,15.7,6.7
	c1.4,0.9,2.6,2.1,3.6,3.4c1.3,2,1.9,4.4,1.9,6.8l0,0C200.8,283.5,200.1,287.5,198.6,291.1z"/>
<path class="st5" d="M222.8,293.5c-7.9-1.3-16-2.1-24-2.3h-0.2c-4.2-0.1-8.3,0-12.5,0.3c-6.9,0.6-13.8,1.5-20.6,2.9
	c-3.2,0.6-6.3,1.2-9.4,1.9c-9-1.6-18.1-2.9-27-4.9c-4.4-0.7-8.6-2.4-12.3-4.9c-0.9-0.7-1.8-1.6-2.5-2.5c-0.3-0.4-0.6-0.9-0.9-1.3
	c-1.1-1.9-1.7-4-1.6-6.2c0-0.6,0.1-1.1,0.3-1.7c1.2-3.2,3.5-5.9,6.5-7.5c4.5-3.2,9.8-5.2,15.3-5.7c3.7-0.2,7.4,0.5,11.1,0.3
	c3.3-0.2,5.6-2,8.5-2.4c2.2-0.3,4.5-0.1,6.6,0.6c5,1.4,10.2,4.4,14.2,6.4l26.6,13.3l0.2,0.1l5.3,2.7c5,2.3,9.7,5.1,14.1,8.4
	C221.5,291.3,222.4,292.3,222.8,293.5z"/>
<path class="st0" d="M329.9,228.9v7.7H21.4c-0.5-2.6-0.9-5.1-1.4-7.6L329.9,228.9z"/>
<linearGradient id="SVGID_4_" gradientUnits="userSpaceOnUse" x1="81.8086" y1="582.2169" x2="189.3686" y2="704.9769" gradientTransform="matrix(1.0632 0 0 1.0632 1.5033 -485.7732)">
	<stop  offset="1.000000e-02" style="stop-color:#000000"/>
	<stop  offset="8.000000e-02" style="stop-color:#000000;stop-opacity:0.69"/>
	<stop  offset="0.21" style="stop-color:#000000;stop-opacity:0.32"/>
	<stop  offset="1" style="stop-color:#000000;stop-opacity:0"/>
</linearGradient>
<path class="st6" d="M329.9,228.9v7.7H21.4c-0.5-2.6-0.9-5.1-1.4-7.6L329.9,228.9z"/>
<linearGradient id="SVGID_5_" gradientUnits="userSpaceOnUse" x1="-1607.5532" y1="527.8762" x2="-1573.6033" y2="527.8762" gradientTransform="matrix(-1.0632 0 0 -1.0632 -1528.6138 701.0679)">
	<stop  offset="0" style="stop-color:#E5C5D5"/>
	<stop  offset="0.42" style="stop-color:#EAD4D1"/>
	<stop  offset="1" style="stop-color:#F0E9CB"/>
</linearGradient>
<path class="st7" d="M174.1,121c-3.7-3.3-11.4-4.1-14.9-0.4c-2.6,2.7-2.8,6.8-3.4,10.5c-0.9,5.3-3.2,10.3-6.5,14.6
	c-1.8,2.3-3.9,4.4-4.7,7.2c-0.3,0.9-0.3,1.9,0,2.8c0.5,0.9,1.3,1.7,2.3,2.2c2.2,1.6,4.7,2.8,7.3,3.4c2.7,0.6,5.5-0.4,7.2-2.5
	c0.6-0.9,1.1-2.1,2.1-2.5c1.4-0.4,2.6,0.9,4,1.4c2.3,0.9,4.9-0.8,6-2.9c1-2.2,1.5-4.6,1.7-7.1c0.2-2.5,1.3-4.7,3.1-6.4
	c0.7-0.5,1.7-0.9,2-1.8c0.6-1.6-1.1-3-2.1-4.3C175,131,178.3,124.5,174.1,121z"/>
<path class="st5" d="M173,106c-4.6-5.3-11.7-8.3-17.7-4.6c-2.3,1.4-4.1,3.5-6.5,4.7c-1.5,0.6-3,1.1-4.6,1.4c-4.1,1-8.4,2.4-11.1,5.5
	c-2.8,3.2-3.3,8.6-0.1,11.3c-1.4,1.9-1.2,4.4,0.4,6.1c1,0.8,2.1,1.5,3.2,2.1c3.2,2.1,3.2,4.5,2.9,7.8c0.1,0.5,0.3,1,0.6,1.5l2.9,4.3
	c1,1.4,2.3,3,4.1,3c2.5-0.1,3.8-3.7,6.4-3.9c1.1,0.1,2.2,0.3,3.2,0.7c1.1,0.3,2.5-0.1,2.8-1.1c-2.8-1.5-4-5-2.6-8
	c0.6-1.2,2.1-2.2,3.2-1.4c0.6,0.5,0.8,1.4,1.2,2.1c0.4,0.8,1.4,1.2,1.9,0.6c1.4-3.3-0.1-7.3,1-10.7c1-3,3.7-5.1,6.8-5.3
	c1.3-0.1,2.7,0.2,4,0c1.4-0.1,2.5-1,2.9-2.3C178.5,115,176.4,109.9,173,106z"/>
<path class="st0" d="M137.5,155.2c-0.5,0.7-0.7,1.6-0.5,2.5c0.4,0.8,1.3,1.2,2.1,1.2c6,0.6,12.3,1.4,18,4.4c1.2,0.6,2.8,1.2,3.7,0
	c0.5-0.9,0.5-2,0-2.9c-0.5-0.8-1.1-1.5-1.9-2c-2.4-1.8-5-3.4-7.6-4.9C146.4,150.6,141.3,149.1,137.5,155.2z"/>
<path class="st0" d="M156.5,254.5c2.9,5.7,8.9,9.2,2.9,15c-10.6,10.2-29.4,14.5-43.7,14.4c-9.6-0.1-19.4-2.3-26.9-8.2
	c-2.3-1.7-4.1-3.9-5.2-6.5c-0.5-1.7-0.8-3.5-0.9-5.3c-1.9-33.6,10-66.6,26.8-95.8c3.2-5.6,7.4-11.6,13.8-12.5
	c2.3-0.2,4.6-0.1,6.8,0.4c14.9,2.6,29.7,6,44.2,10.4c3.5,0.6,6.5,2.8,8.2,6l23,35.2c3.3,5.1,6.8,10.6,6.4,16.7
	c0,1.8-0.6,3.5-1.7,4.9c-1.7,1.6-4,2.6-6.4,2.8c-8.4,1.3-16.9,0.8-25-1.7c4.5-3.5,3.1-10.7,0.1-15.6c-2-3.3-4.5-6.2-7.4-8.8
	c-1.9,9.5-5.1,18.7-9.4,27.4C158.9,239.7,152.8,247.3,156.5,254.5z"/>
<linearGradient id="SVGID_6_" gradientUnits="userSpaceOnUse" x1="14.4541" y1="779.9019" x2="186.5241" y2="607.8419" gradientTransform="matrix(1.0632 0 0 1.0632 1.5033 -485.7732)">
	<stop  offset="1.000000e-02" style="stop-color:#000000"/>
	<stop  offset="8.000000e-02" style="stop-color:#000000;stop-opacity:0.69"/>
	<stop  offset="0.21" style="stop-color:#000000;stop-opacity:0.32"/>
	<stop  offset="1" style="stop-color:#000000;stop-opacity:0"/>
</linearGradient>
<path class="st8" d="M91.1,209.6c0.6-2.2,2.3-9.1,4.4-13c8.3,5.9,14.4,17.5,17.5,27.2c3.1,9.7,5.6,20,11.8,28l6.8-2.3l1.3,4.3
	c1,3.4-1.8,6.8-1.6,10.2s3.7,6.4,6.9,7.3c3.9,1.1,8,0.2,11.9-0.8c2.5-0.5,4.9-1.5,7-3c2-1.6,3.3-4.3,2.5-6.8c1.7,1,2.4,3.1,1.8,4.9
	c-0.6,1.8-1.7,3.4-3.2,4.6c-4.7,4.1-10.7,6.5-16.6,8.7c-2.8,1.1-5.7,2.1-8.6,2.9c-6.6,1.8-13.6,1.9-20.4,2.1
	c-4.2,0.1-6.7-0.6-8.5-4.7c-2.6-5.9-2.8-12.5-3.5-18.9C98.8,243.1,95.6,226.2,91.1,209.6z"/>
<path class="st5" d="M113.9,271.2c0,1.8,0,3.7-0.1,5.6c-0.1,1.9-0.3,3.8-0.5,5.8l-0.2,1.3c-0.2,1.3-0.4,2.7-0.6,4.1c0,0,0,0.1,0,0.1
	c-0.1,0.8-0.3,1.5-0.4,2.3c0.6,4.2,0.1,8.4-1.5,12.3l0,0c-3.8,0.1-7.6,0.1-11.4-0.2c-7.4-0.4-14.7-1.7-21.8-3.9l0,0
	c-7.2-3.7-13.9-8.4-19.8-14c-1.6-1.4-2.9-3.1-3.8-5.1c-0.6-2.1-0.9-4.4-0.6-6.6c0.2-12.3-1.4-24.6-4.8-36.4
	c-0.7-2.6-1.6-5.1-2.5-7.6c-1.1-2.9-2.1-5.7-3.4-8.5c-2.9-6.6-6.4-13-7.8-20c-0.7-3.9-0.8-7.8-0.1-11.7c0-0.7,0.3-1.3,0.7-1.9
	c0.7-0.5,1.6-0.8,2.4-0.7c8.9,0.2,16.9,5.3,25.7,6.8c4.5,0.8,9.2,0.6,13.5,1.9c6.2,1.8,11,6.4,14.8,11.7c2,2.8,3.7,5.8,5.2,8.9
	c2.3,4.6,4.4,9,6.4,13.4c1.1,2.6,2.2,5.1,3.2,7.6c3.3,7.9,5.6,16.2,6.8,24.7v0.2C113.6,264.5,113.8,267.9,113.9,271.2z"/>
<linearGradient id="SVGID_7_" gradientUnits="userSpaceOnUse" x1="30.5921" y1="686.7896" x2="105.6789" y2="686.7896" gradientTransform="matrix(1.0632 0 0 1.0632 1.5033 -485.7732)">
	<stop  offset="0" style="stop-color:#000000;stop-opacity:0"/>
	<stop  offset="0.99" style="stop-color:#000000"/>
</linearGradient>
<path class="st9" d="M113.9,271.2c0,1.8,0,3.7-0.1,5.6c-0.1,1.9-0.3,3.8-0.5,5.8l-0.2,1.3c-0.2,1.3-0.4,2.7-0.6,4.1c0,0,0,0.1,0,0.1
	c-0.1,0.8-0.3,1.5-0.4,2.3c0.6,4.2,0.1,8.4-1.5,12.3l0,0c-3.8,0.1-7.6,0.1-11.4-0.2c-7.4-0.4-14.7-1.7-21.8-3.9l0,0
	c-7.2-3.7-13.9-8.4-19.8-14c-1.6-1.4-2.9-3.1-3.8-5.1c-0.6-2.1-0.9-4.4-0.6-6.6c0.2-12.3-1.4-24.6-4.8-36.4
	c-0.7-2.6-1.6-5.1-2.5-7.6c-1.1-2.9-2.1-5.7-3.4-8.5c-2.9-6.6-6.4-13-7.8-20c-0.7-3.9-0.8-7.8-0.1-11.7c0-0.7,0.3-1.3,0.7-1.9
	c0.7-0.5,1.6-0.8,2.4-0.7c8.9,0.2,16.9,5.3,25.7,6.8c4.5,0.8,9.2,0.6,13.5,1.9c6.2,1.8,11,6.4,14.8,11.7c2,2.8,3.7,5.8,5.2,8.9
	c2.3,4.6,4.4,9,6.4,13.4c1.1,2.6,2.2,5.1,3.2,7.6c3.3,7.9,5.6,16.2,6.8,24.7v0.2C113.6,264.5,113.8,267.9,113.9,271.2z"/>
<rect x="286" y="228.9" class="st0" width="98.2" height="7.6"/>
<linearGradient id="SVGID_8_" gradientUnits="userSpaceOnUse" x1="239.2157" y1="562.7588" x2="350.7157" y2="731.6988" gradientTransform="matrix(1.0632 0 0 1.0632 1.5033 -485.7732)">
	<stop  offset="1.000000e-02" style="stop-color:#000000"/>
	<stop  offset="8.000000e-02" style="stop-color:#000000;stop-opacity:0.69"/>
	<stop  offset="0.21" style="stop-color:#000000;stop-opacity:0.32"/>
	<stop  offset="1" style="stop-color:#000000;stop-opacity:0"/>
</linearGradient>
<rect x="286" y="228.9" class="st10" width="98.2" height="7.6"/>
<path class="st0" d="M359.4,236.5v54.1c-1.5,1.1-3,2.1-4.6,3.1c-24.5,15-55.4,13.9-83.7,9l-6-1.1v-65.1H359.4z"/>
<rect x="211.9" y="105" class="st11" width="52.6" height="34.3"/>
<path class="st0" d="M223.1,137c2.1-3.4,6-5.5,10-5.3c1.4,0,2.8,0.1,4.2,0.1c4,0,10-1.4,13.5,0.7c1.4,0.8,2.6,4.6,3.3,6.2
	c0.2,0.3,0.2,0.6,0.1,0.9c-0.2,0.3-0.5,0.2-0.8,0.2c-7.1-0.1-14.2,0-21.3,0h-10C222.2,138.8,222.6,137.8,223.1,137z"/>
<linearGradient id="SVGID_9_" gradientUnits="userSpaceOnUse" x1="-108.7591" y1="647.4005" x2="-102.3499" y2="647.4005" gradientTransform="matrix(1.0207 0.2871 0.2871 -1.0207 161.3237 821.4648)">
	<stop  offset="0" style="stop-color:#E3C5D5"/>
	<stop  offset="0.42" style="stop-color:#E8D3CF"/>
	<stop  offset="1" style="stop-color:#EFE8CB"/>
</linearGradient>
<path class="st12" d="M237.1,133.4c0.3,0.2,0.7,0.4,1.1,0.6c0.8,0.3,1.6,0.4,2.5,0.3c0.9-0.1,1.6-0.7,1.8-1.5c0.1-0.4,0.1-0.9,0-1.3
	l-0.2-1.5c0-0.8-0.2-1.5-0.6-2.2c-0.7-1.1-2.1-1.5-3.3-1.1c-0.8,0.4-1.4,1-1.7,1.8C236,130.2,235.4,132,237.1,133.4z"/>
<linearGradient id="SVGID_10_" gradientUnits="userSpaceOnUse" x1="-21.3581" y1="569.5728" x2="-18.5681" y2="584.7028" gradientTransform="matrix(1.0632 0 0 -1.0632 261.0626 737.6633)">
	<stop  offset="0" style="stop-color:#010101;stop-opacity:0"/>
	<stop  offset="0.95" style="stop-color:#010101"/>
</linearGradient>
<path class="st13" d="M241.8,127.8c0,0-1.6,4.7-4,4.7c-2.3,0-1.7-2.3-1.7-2.3L241.8,127.8z"/>
<linearGradient id="SVGID_11_" gradientUnits="userSpaceOnUse" x1="-26.6461" y1="578.0585" x2="-15.9811" y2="578.0585" gradientTransform="matrix(1.0632 0 0 -1.0632 261.0626 737.6633)">
	<stop  offset="0" style="stop-color:#E3C5D5"/>
	<stop  offset="0.42" style="stop-color:#E8D3CF"/>
	<stop  offset="1" style="stop-color:#EFE8CB"/>
</linearGradient>
<path class="st14" d="M232.9,125.9c0.2,0.8,0.6,1.6,0.9,2.3c0.1,0.4,0.2,0.7,0.4,1.1c0.3,0.5,0.8,0.8,1.4,1c1.2,0.4,2.5,0.4,3.6-0.1
	c1.6-0.8,2.7-2.1,3.3-3.8c0.6-1.6,1.6-3.2,1.6-4.9c0-0.7-0.9-1.6-1.1-2.3c-0.3-0.7-0.8-1.4-1.4-1.9c-0.5-0.5-1.1-1-1.7-1.3
	c-1.6-0.6-3.5-0.4-4.9,0.6c-0.5,0.3-0.9,0.6-1.3,1.1c-0.8,1.1-0.7,2.5-0.7,3.9C233,123,232.5,124.4,232.9,125.9z"/>
<path class="st15" d="M230.9,118.1c-0.4-0.8-0.7-1.7-0.8-2.7c-0.1-0.2-0.1-0.4,0-0.7c0.1-0.3,0.5-0.4,0.8-0.6
	c0.5-0.5,0.1-1.4,0.1-2.1c0.1-0.8,0.7-1.6,1.5-1.9c0.8-0.3,1.6-0.4,2.5-0.4c1.1-0.2,2.3,0.1,3.2,0.8c0.4,0.4,0.6,1.1,1.1,1.4
	c1,0.8,2.4,0.3,3.7,0.6c1.1,0.2,1.9,1.1,2.1,2.2c0.2,1.1-0.2,2.3,0.4,3.2c0.2,0.2,0.4,0.5,0.6,0.8c0.1,0.4,0.1,0.7-0.1,1.1
	c-0.5,1.4-1.1,2.7-1.9,3.9c-0.1,0.2-0.3,0.5-0.6,0.6c-0.3,0.1-0.7,1.6-0.8,1.4c-0.2-0.9-0.1-1.8,0.2-2.6c0.3-0.3,0.5-0.6,0.7-0.9
	c0.1-0.6-0.3-1.1-0.9-1.2c0,0,0,0,0,0c-0.3,0-0.6,0.1-0.9,0.3c0.3-1.7-0.6-3.7-2.3-4.1c-1-0.1-2,0.1-2.9,0.6
	C234.5,118.7,232.4,120.8,230.9,118.1z"/>
<linearGradient id="SVGID_12_" gradientUnits="userSpaceOnUse" x1="-17.1106" y1="578.7675" x2="-19.8306" y2="579.0875" gradientTransform="matrix(1.0632 0 0 -1.0632 261.0626 737.6633)">
	<stop  offset="0" style="stop-color:#010101;stop-opacity:0"/>
	<stop  offset="0.95" style="stop-color:#010101"/>
</linearGradient>
<path class="st16" d="M242.4,121.6c0-0.1,0.1-0.1,0.2-0.2c0.1,0,0.2,0,0.3,0.1c0.1,0.1,0.2,0.2,0.3,0.3c0,0.1,0,0.2,0,0.3
	c-0.1,0.2-0.1,0.4-0.3,0.6c-0.1,0.2-0.3,0.3-0.6,0.4c-0.1,0-0.3-0.2-0.3-0.3c0-0.1,0.1-0.1,0.1-0.2
	C242.3,122.3,242.2,121.9,242.4,121.6z"/>
<rect x="269.4" y="105.3" class="st11" width="52.6" height="34.3"/>
<rect x="269.4" y="143.5" class="st11" width="52.6" height="34.3"/>
<rect x="211.9" y="143.5" class="st11" width="52.6" height="34.3"/>
<path class="st17" d="M290.2,146.9c2-0.6,4-0.7,6-0.3c1.1,0.1,2.3,0.4,3.3,0.9c1.8,1.1,2.8,3.3,3.2,5.4c0.3,2.1,0.7,4.3,1.3,6.3
	c0.9,2.3,2.7,4.3,3.3,6.7c1,3.9-1.4,7.9-5.3,8.8c-0.6,0.1-1.2,0.2-1.8,0.2c-1.6,0-3.1-0.5-4.6-0.5c-3.2,0-6.3,2.2-9.4,1.6
	c-2.6-0.5-4.4-2.9-5.5-5.3c-0.8-1.5-1-3.1-0.6-4.7c0.7-2.1,2.9-3.4,3.9-5.3c1.3-2.5,0.3-5.5,1.4-8
	C286.5,150.3,287.7,147.9,290.2,146.9z"/>
<path class="st0" d="M301.3,167.4c1.7,0.3,3.7,0.2,5.1,1.2c0.8,0.7,1.4,1.6,1.6,2.6c0.2,1,0.2,2.1,0.1,3.1l-0.1,3.1
	c0,0.1,0,0.2-0.1,0.3c-0.1,0.1-0.2,0.1-0.4,0.1L281,178c-0.5-1.7-0.2-3.5,0.7-5c0.7-1.3,1.6-2.5,2.7-3.5c1.6-1.2,5.4-1.3,7.2-2.3
	c0.5-0.3,0-0.6,0.6-0.8c0.6-0.1,0.3-0.7,0.8-0.8c1.6-0.1,3.1-0.1,4.7,0.2C298.8,166.2,299.9,167.1,301.3,167.4z"/>
<linearGradient id="SVGID_13_" gradientUnits="userSpaceOnUse" x1="27.8187" y1="536.9362" x2="34.4087" y2="536.9362" gradientTransform="matrix(1.0632 0 0 -1.0632 261.0626 737.6633)">
	<stop  offset="0" style="stop-color:#E3C5D5"/>
	<stop  offset="0.42" style="stop-color:#E8D3CF"/>
	<stop  offset="1" style="stop-color:#EFE8CB"/>
</linearGradient>
<path class="st18" d="M290.9,168.3c-0.1,0.4-0.2,0.9-0.3,1.3c0,1,0.5,2,1.4,2.5c0.9,0.5,2,0.6,2.9,0.1c1-0.5,1.8-1.4,2.1-2.4
	c0.4-1.1,0.6-2.2,0.5-3.3c0-1.5-0.1-3-0.3-4.4c0.1-0.5-0.2-1-0.7-1.1c0,0,0,0,0,0h-0.2c-1.8-0.3-3.5,0.7-4.3,2.4
	c-0.2,0.5-0.3,1.1-0.4,1.7C291.5,166.2,291.2,167.3,290.9,168.3z"/>
<linearGradient id="SVGID_14_" gradientUnits="userSpaceOnUse" x1="30.0291" y1="535.5432" x2="39.869" y2="549.0833" gradientTransform="matrix(1.0632 0 0 -1.0632 261.0626 737.6633)">
	<stop  offset="0" style="stop-color:#010101;stop-opacity:0"/>
	<stop  offset="0.95" style="stop-color:#010101"/>
</linearGradient>
<path class="st19" d="M291.6,166.1c0,0-0.2,1.4,0.5,1.9c0.6,0.5,3.1,1.7,4.3,0c0.7-1.1,1.2-2.3,1.4-3.6L291.6,166.1z"/>
<linearGradient id="SVGID_15_" gradientUnits="userSpaceOnUse" x1="-25.2285" y1="600.2954" x2="-13.7385" y2="600.2954" gradientTransform="matrix(1.0526 0.1701 0.1701 -1.0526 212.3361 793.928)">
	<stop  offset="0" style="stop-color:#E3C5D5"/>
	<stop  offset="0.42" style="stop-color:#E8D3CF"/>
	<stop  offset="1" style="stop-color:#EFE8CB"/>
</linearGradient>
<path class="st20" d="M288.2,161.6c0.3,1,2.2,4.5,4.8,5.2c5.6,1.4,7.3-8.4,7-10.5c-0.4-1.7-1.3-3.3-2.6-4.5
	c-1.4-1.1-3.4-1.4-5.1-0.6C287.9,153.1,286.8,157.3,288.2,161.6z"/>
<path class="st17" d="M286.4,156.1c0.1,0.4,0.4,0.8,0.9,0.9c0.5,0,0.9-0.1,1.3-0.4c0.5-0.2,1.1-0.1,1.6-0.3s0.9-0.9,0.6-1.3
	c-0.2,0.7,0.7,1.1,1.4,1.1c0.7-0.2,1.4-0.2,2.1-0.1l0.3-1.4c-0.1,0.6,0.3,1.1,0.8,1.3c0.5,0.2,1.1,0.2,1.7,0
	c0.2-0.1,0.5-0.3,0.4-0.5c0.6,0.7,1.6,0.4,2.5,0c0.1,0,0.2-0.1,0.3-0.2c0.1-0.1,0.1-0.3,0-0.4c-0.3-1.3-0.8-2.6-1.4-3.8
	c-0.7-1.2-1.8-2.1-3.2-2.4c-0.8-0.1-1.6-0.1-2.3,0.1c-2,0.3-3.9,1.4-5.2,2.9C287.3,152.7,286,154.7,286.4,156.1z"/>
<path class="st21" d="M290.2,109.1c2-0.6,4-0.7,6-0.3c1.1,0.1,2.3,0.4,3.3,0.9c3.3,1.9,2.5,4.7,2.8,7.7c0,1,0.6,1.9,1.5,2.4
	c0.6,0.3,1.4,0.2,1.9,0.7c0.5,0.6,0.7,1.4,0.5,2.1c-0.2,0.7-0.5,1.4-0.7,2.1c-0.1,0.3,0,0.6,0.1,0.9c0.2,0.3,0.7,0.4,1.1,0.5
	c0.9,0.5,1.5,1.4,1.5,2.3c0.1,1,0,1.9,0.1,2.9c0.1,0.6,0.2,1.2,0.2,1.8c-0.1,1.9-2,3.3-3.9,3.5c-1.9,0.1-3.8-0.3-5.5-1
	c-1.8-0.7-3.7-1-5.5-0.9c-2,0.3-4.2,1.6-5.9,0.7c-1-0.7-1.6-1.8-1.6-3c0-1.2,0.3-2.4,0.7-3.5c0.2-0.3,0.2-0.7,0.1-1.1
	c-0.2-0.3-0.4-0.5-0.7-0.7c-2.6-2-1.7-9.7-0.6-12.4C286.5,112.5,287.7,110,290.2,109.1z"/>
<path class="st0" d="M301.3,129.6c1.7,0.3,3.7,0.2,5.1,1.2c0.8,0.7,1.4,1.6,1.6,2.6c0.2,1.1,0.2,2.1,0.1,3.2l-0.1,3.1
	c0,0.1,0,0.2-0.1,0.3c-0.1,0.1-0.2,0.1-0.4,0.1l-26.6,0.1c-0.5-1.7-0.2-3.5,0.7-5c0.7-1.3,1.6-2.5,2.7-3.5c1.6-1.2,5.4-1.3,7.2-2.3
	c0.5-0.3,0-0.6,0.6-0.8c0.6-0.1,0.3-0.7,0.8-0.8c1.6-0.1,3.1-0.1,4.7,0.2C298.8,128.4,299.9,129.3,301.3,129.6z"/>
<linearGradient id="SVGID_16_" gradientUnits="userSpaceOnUse" x1="27.8187" y1="572.5261" x2="34.4087" y2="572.5261" gradientTransform="matrix(1.0632 0 0 -1.0632 261.0626 737.6633)">
	<stop  offset="0" style="stop-color:#E3C5D5"/>
	<stop  offset="0.42" style="stop-color:#E8D3CF"/>
	<stop  offset="1" style="stop-color:#EFE8CB"/>
</linearGradient>
<path class="st22" d="M290.9,130.5c-0.1,0.4-0.2,0.9-0.3,1.3c0,1,0.5,2,1.4,2.5c0.9,0.5,2,0.6,2.9,0.1c1-0.5,1.8-1.4,2.1-2.4
	c0.4-1.1,0.6-2.2,0.5-3.3c0-1.5-0.1-3-0.3-4.4c0.1-0.5-0.2-1-0.7-1.1c0,0,0,0,0,0h-0.2c-1.8-0.3-3.5,0.7-4.3,2.4
	c-0.2,0.5-0.3,1.1-0.4,1.7C291.5,128.4,291.2,129.4,290.9,130.5z"/>
<linearGradient id="SVGID_17_" gradientUnits="userSpaceOnUse" x1="30.0291" y1="571.1332" x2="39.869" y2="584.6732" gradientTransform="matrix(1.0632 0 0 -1.0632 261.0626 737.6633)">
	<stop  offset="0" style="stop-color:#010101;stop-opacity:0"/>
	<stop  offset="0.95" style="stop-color:#010101"/>
</linearGradient>
<path class="st23" d="M291.6,128.2c0,0-0.2,1.4,0.5,1.9c0.6,0.5,3.1,1.7,4.3,0c0.7-1.1,1.2-2.3,1.4-3.6L291.6,128.2z"/>
<linearGradient id="SVGID_18_" gradientUnits="userSpaceOnUse" x1="-30.8985" y1="635.3298" x2="-19.4085" y2="635.3298" gradientTransform="matrix(1.0526 0.1701 0.1701 -1.0526 212.3361 793.928)">
	<stop  offset="0" style="stop-color:#E3C5D5"/>
	<stop  offset="0.42" style="stop-color:#E8D3CF"/>
	<stop  offset="1" style="stop-color:#EFE8CB"/>
</linearGradient>
<path class="st24" d="M288.2,123.7c0.3,1,2.2,4.5,4.8,5.2c5.6,1.4,7.3-8.4,7-10.5c-0.4-1.7-1.3-3.3-2.6-4.5
	c-1.4-1.1-3.4-1.4-5.1-0.6C287.9,115.2,286.8,119.5,288.2,123.7z"/>
<path class="st0" d="M227.3,165.1c2.2-0.9,4.6-1.3,7-1.2c2.6-0.1,5.4-0.1,7.6,1c1,0.6,1.9,1.3,2.7,2.2c0.3,0.3,0.5,0.6,0.7,0.9
	c0.2,0.4,0.2,0.9,0.2,1.3v6.2c0,0.4,0,0.8-0.2,1.2c-0.6,1.1,1.4,1.1,0,1.1h-24c0.4,0,0.8-3.6,0.8-3.9c0-1.2-0.4-2.3,0.2-3.4
	C223.3,168.2,225.1,166.3,227.3,165.1z"/>
<path class="st25" d="M233.2,167.3c0.7,0.6,1.7,0.9,2.6,0.8c1.2-0.3,2-1.3,2.1-2.5c0.2-1.1-0.1-2.3,0-3.4c0.1-0.7,0.1-1.4,0-2.1
	c-0.4-1.1-1.5-1.9-2.6-2c-1.2-0.1-2.4,0.3-3.2,1.2c-1.1,1.2-0.8,2.7-0.8,4.3C231.3,165,232,166.4,233.2,167.3z"/>
<linearGradient id="SVGID_19_" gradientUnits="userSpaceOnUse" x1="-24.6398" y1="538.1234" x2="-24.8698" y2="549.6733" gradientTransform="matrix(1.0632 0 0 -1.0632 261.0626 737.6633)">
	<stop  offset="0" style="stop-color:#010101;stop-opacity:0"/>
	<stop  offset="0.95" style="stop-color:#010101"/>
</linearGradient>
<path class="st26" d="M231.6,162.1c0,0,1.3,3.6,3.7,3.6c2.4,0,2.8-1.2,2.8-1.2l-0.1-2L231.6,162.1z"/>
<path class="st25" d="M240.3,157.7c0,1.1-0.2,2.2-0.5,3.2c-0.3,1-1,1.9-1.8,2.6c-1.3,0.8-2.9,0.9-4.3,0.3c-1.4-0.6-2.5-1.7-3.2-3.1
	c-0.7-1.3-1.1-2.8-1.3-4.3c-0.1-1.1,0.1-2.3,0.6-3.3c0.6-1,1.6-1.8,2.8-2.1c1.2-0.3,2.3-0.4,3.5-0.4c1,0,1.9,0.2,2.8,0.5
	c1,0.4,1.6,1.5,1.4,2.5C240.2,155,240.4,156.4,240.3,157.7z"/>
<path class="st17" d="M230.7,157.2c-0.3-0.2-0.5-0.6-0.8-0.6c-0.2,0-0.4,0.1-0.5,0.3c-0.1,0.2-0.1,0.4,0,0.6
	c0.1,0.5,0.3,0.9,0.7,1.3c0.2,0.1,0.3,0.3,0.4,0.5c0,0.2,0,0.3,0,0.5l-0.1,1.1c-0.5-0.2-1-0.7-1.1-1.2c-0.1-0.2-0.2-0.7-0.5-0.7
	c-0.3-0.1-0.5,0.3-0.9,0c-0.3-0.2-0.3-0.6-0.2-0.8c-0.3,0.4-1.1,0-1.1-0.5c0-0.5,0.3-1,0.7-1.2c-0.5-0.2-1-0.6-1.1-1.2
	c-0.1-0.5,0.3-1,0.8-1c0,0,0,0,0,0c0.1,0,0.2,0,0.3,0c-0.4-0.5-0.4-1.2,0-1.6c0.4-0.5,1-0.7,1.6-0.7v-1.6c0-0.4,0.1-0.7,0.2-1.1
	c0.2-0.3,0.6-0.4,0.9-0.2h0.1c0.1-0.8,0.3-1.6,1-1.9c0.6-0.1,1.1,0,1.6,0.3c0.1-0.7,0.5-1.2,1.2-1.4c0.7-0.1,1.4,0,1.9,0.4
	c0.1,0.1,0.1,0.1,0.2,0.1c0.1,0,0.2,0,0.3,0c0.9-0.7,2.3-0.5,3,0.5c0,0,0,0,0,0c0.4,0.5,0.5,1.1,0.4,1.7c0-0.4,0.5-0.4,0.9-0.3
	c0.4,0.1,0.8,0.2,1.1,0.5c0.5,0.5,0.2,1.4-0.1,2c0.7,0,1.3,0.5,1.4,1.2c0.1,1.2-1.1,1.2-1.7,1.9c-0.4,0.4-0.6,1.1-1.1,1.5
	c-0.6,0.4-1.4,0.4-2,0.1c-0.6-0.3-1.2-0.7-1.8-1.1c-0.3-0.2-0.6-0.3-1-0.3c-0.5,0.1-0.8,0.6-1.2,0.9c-0.4,0.2-0.8,0.2-1.3,0.1
	c-0.5-0.1-1.1-0.2-1.5,0.3C231.1,156,230.9,156.6,230.7,157.2z"/>
<linearGradient id="SVGID_20_" gradientUnits="userSpaceOnUse" x1="-29.1325" y1="545.0659" x2="-27.8925" y2="545.7458" gradientTransform="matrix(1.0632 0 0 -1.0632 261.0626 737.6633)">
	<stop  offset="0" style="stop-color:#010101;stop-opacity:0"/>
	<stop  offset="0.95" style="stop-color:#010101"/>
</linearGradient>
<path class="st27" d="M230.2,157.7c0-0.1-0.1-0.2-0.1-0.3c0-0.1-0.1-0.1-0.2-0.1c-0.1,0-0.2,0.1-0.2,0.2c0,0.1,0,0.2,0,0.3
	c0,0.2,0.1,0.4,0.2,0.5c0.1,0.1,0.1,0.2,0.2,0.3c0.1,0.1,0.2,0.1,0.4,0.1c0,0,0.1,0,0.1,0c0,0,0-0.1,0.1-0.1c0-0.2,0.1-0.5,0-0.6
	c-0.1-0.1-0.1,0-0.2-0.1C230.4,157.9,230.3,157.8,230.2,157.7z"/>
<path class="st21" d="M292,117c1.2,0.3,2.4,0.6,3.6,0.7c0.1,0.7,0.2,1.4,0.3,2.1c0,0.3,0.1,0.6,0.3,0.8c0.2,0.4,0.6,0.6,1.1,0.7
	c0.4,0.1,0.9,0.1,1.3,0c0.2,0,0.4,0,0.6,0.1c0.1,0.1,0.2,0.2,0.2,0.3l0.8,1.8c0.1,0,0.2,0,0.2-0.1c0,0,0,0,0-0.1c0-0.1,0-0.2,0-0.3
	c-0.1-0.7,0.4-1.4,0.7-2.1c0.8-1.7,0.3-3.7-0.4-5.5c-0.3-0.8-0.7-1.6-1.2-2.3c-1.3-1.4-3.1-2.3-5.1-2.4c-0.9-0.1-1.9-0.1-2.8,0.2
	c-1.3,0.6-2.2,1.8-2.3,3.3C289.3,115.8,290.9,116.6,292,117z"/>
</svg>
