<?xml version="1.0" encoding="utf-8"?>
<!-- Generator: Adobe Illustrator 25.3.1, SVG Export Plug-In . SVG Version: 6.00 Build 0)  -->
<svg version="1.1" id="Layer_1" xmlns="http://www.w3.org/2000/svg" xmlns:xlink="http://www.w3.org/1999/xlink" x="0px" y="0px"
	 viewBox="0 0 406 306" style="enable-background:new 0 0 406 306;" xml:space="preserve">
<style type="text/css">
	.st0{fill:#FFBBAB;}
	.st1{fill:url(#SVGID_1_);}
	.st2{fill:#E2D80D;}
	.st3{fill:url(#SVGID_2_);}
	.st4{fill:url(#SVGID_3_);}
	.st5{fill:#FFFFFF;}
	.st6{opacity:0.36;fill:url(#SVGID_4_);enable-background:new    ;}
	.st7{fill:url(#SVGID_5_);}
	.st8{fill:url(#SVGID_6_);}
	.st9{fill:url(#SVGID_7_);}
	.st10{fill:url(#SVGID_8_);}
	.st11{fill:#FC682D;}
	.st12{fill:url(#SVGID_9_);}
	.st13{fill:url(#SVGID_10_);}
	.st14{fill:url(#SVGID_11_);}
	.st15{fill:url(#SVGID_12_);}
	.st16{fill:url(#SVGID_13_);}
	.st17{fill:url(#SVGID_14_);}
</style>
<path class="st0" d="M163.6,65.9l2.1-2.9c1.9-2.9,4.1-5.6,6.5-8c4.9-4.8,8-11,12.4-16.3c0.3-0.3,0.5-0.6,0.5-1
	c0.1-0.9-0.8-1.5-1.6-1.9c-1.1-0.6-2.2-0.8-3.4-0.8c-1.2,0-2.3,0.8-2.8,1.9c-0.1,0.7-0.2,1.4-0.2,2.1c-0.4,1.8-1.3,3.5-2.7,4.8
	l-11,12.4c-1.4,1.4-2.5,3.1-3,5C160.2,63.4,161.5,65.4,163.6,65.9z"/>
<linearGradient id="SVGID_1_" gradientUnits="userSpaceOnUse" x1="-29.8155" y1="402.2303" x2="-22.2555" y2="404.6803" gradientTransform="matrix(2.1085 0 0 -2.1085 220.0699 909.8126)">
	<stop  offset="1.000000e-02" style="stop-color:#000000"/>
	<stop  offset="0.13" style="stop-color:#000000;stop-opacity:0.69"/>
	<stop  offset="0.25" style="stop-color:#000000;stop-opacity:0.32"/>
	<stop  offset="1" style="stop-color:#000000;stop-opacity:0"/>
</linearGradient>
<path class="st1" d="M163.6,65.9c0.9-1,1.3-2.2,1.3-3.5c0.1-1.7,0.4-3.4,0.9-5c0.8-1.5,1.2-3.2,1.1-4.8c0-0.1,0-0.2,0-0.2
	c-0.1-0.1-0.2-0.1-0.4,0c-0.6,0.2-1,0.7-1.3,1.2c-1.3,2-4.7,5.3-4.7,7.7C160.3,63.4,161.6,65.4,163.6,65.9z"/>
<polygon class="st2" points="156.2,66.1 161.7,61.2 166.2,67 160.4,70.7 "/>
<linearGradient id="SVGID_2_" gradientUnits="userSpaceOnUse" x1="-39.7507" y1="405.4154" x2="-24.8207" y2="407.4454" gradientTransform="matrix(2.1085 0 0 -2.1085 234.8291 922.0838)">
	<stop  offset="1.000000e-02" style="stop-color:#000000"/>
	<stop  offset="0.13" style="stop-color:#000000;stop-opacity:0.69"/>
	<stop  offset="0.25" style="stop-color:#000000;stop-opacity:0.32"/>
	<stop  offset="1" style="stop-color:#000000;stop-opacity:0"/>
</linearGradient>
<polygon class="st3" points="156.2,66.1 161.7,61.2 166.2,67 160.4,70.7 "/>
<path class="st2" d="M345.5,164.1c0,54.3-17.9,98.4-40.1,98.4c-1.9,0-11.2,0.6-13.1,0c-19.4-6.8-27-48.8-27-98.4
	c0-50.8,6.7-93.1,26.8-98.4c1.4-0.4,11.8,0,13.2,0C327.5,65.7,345.5,109.8,345.5,164.1z"/>
<linearGradient id="SVGID_3_" gradientUnits="userSpaceOnUse" x1="98.4094" y1="362.3643" x2="-117.8006" y2="331.4044" gradientTransform="matrix(2.1085 0 0 -2.1085 220.0699 909.8126)">
	<stop  offset="1.000000e-02" style="stop-color:#000000"/>
	<stop  offset="8.000000e-02" style="stop-color:#000000;stop-opacity:0.69"/>
	<stop  offset="0.21" style="stop-color:#000000;stop-opacity:0.32"/>
	<stop  offset="1" style="stop-color:#000000;stop-opacity:0"/>
</linearGradient>
<path class="st4" d="M345.5,164.1c0,54.3-17.9,98.4-40.1,98.4c-1.9,0-11.2,0.6-13.1,0c-19.4-6.8-27-48.8-27-98.4
	c0-50.8,6.7-93.1,26.8-98.4c1.4-0.4,11.8,0,13.2,0C327.5,65.7,345.5,109.8,345.5,164.1z"/>
<ellipse class="st2" cx="294.1" cy="164.1" rx="40.1" ry="98.4"/>
<ellipse class="st5" cx="292.1" cy="164.2" rx="32.5" ry="79.7"/>
<ellipse class="st2" cx="292.1" cy="164.2" rx="23.7" ry="58.2"/>
<ellipse class="st5" cx="292.1" cy="164.2" rx="15.7" ry="38.6"/>
<ellipse class="st2" cx="292.1" cy="164.2" rx="8.2" ry="20.2"/>
<linearGradient id="SVGID_4_" gradientUnits="userSpaceOnUse" x1="4.8377" y1="363.7849" x2="68.9377" y2="318.6049" gradientTransform="matrix(2.1085 0 0 -2.1085 234.8291 922.0838)">
	<stop  offset="1.000000e-02" style="stop-color:#000000"/>
	<stop  offset="8.000000e-02" style="stop-color:#000000;stop-opacity:0.69"/>
	<stop  offset="0.21" style="stop-color:#000000;stop-opacity:0.32"/>
	<stop  offset="1" style="stop-color:#000000;stop-opacity:0"/>
</linearGradient>
<polygon class="st6" points="255.3,189.4 269.1,178.3 269.1,183.8 296.3,164.1 264.9,169 269.2,172.5 254.6,181 "/>
<polygon class="st2" points="66.4,146.9 88.9,146.9 106.4,160.1 284.8,160.1 289.3,166.7 107.4,166.7 92.8,184.4 70.9,184.4 
	81.1,170.1 81.1,164.4 "/>
<linearGradient id="SVGID_5_" gradientUnits="userSpaceOnUse" x1="-24.2283" y1="382.7167" x2="-28.9283" y2="304.7467" gradientTransform="matrix(2.1085 0 0 -2.1085 234.8291 922.0838)">
	<stop  offset="1.000000e-02" style="stop-color:#000000"/>
	<stop  offset="8.000000e-02" style="stop-color:#000000;stop-opacity:0.69"/>
	<stop  offset="0.21" style="stop-color:#000000;stop-opacity:0.32"/>
	<stop  offset="1" style="stop-color:#000000;stop-opacity:0"/>
</linearGradient>
<polygon class="st7" points="81.7,163.6 104.2,163.6 107.3,163.6 285.8,163.6 289.3,166.7 107.4,166.7 92.8,184.4 70.9,184.4 
	81.1,170.1 81.1,164.4 "/>
<polygon class="st2" points="276.6,160.1 272,153.2 296.3,164.1 271.7,173.9 276.4,164.2 "/>
<linearGradient id="SVGID_6_" gradientUnits="userSpaceOnUse" x1="6.499" y1="369.0168" x2="75.349" y2="320.4968" gradientTransform="matrix(2.1085 0 0 -2.1085 234.8291 922.0838)">
	<stop  offset="1.000000e-02" style="stop-color:#000000"/>
	<stop  offset="8.000000e-02" style="stop-color:#000000;stop-opacity:0.69"/>
	<stop  offset="0.21" style="stop-color:#000000;stop-opacity:0.32"/>
	<stop  offset="1" style="stop-color:#000000;stop-opacity:0"/>
</linearGradient>
<polygon class="st8" points="276.6,160.1 272,153.2 296.3,164.1 271.7,173.9 276.4,164.2 "/>
<linearGradient id="SVGID_7_" gradientUnits="userSpaceOnUse" x1="11.3028" y1="375.7993" x2="52.7728" y2="311.4693" gradientTransform="matrix(2.1085 0 0 -2.1085 234.8291 922.0838)">
	<stop  offset="1.000000e-02" style="stop-color:#000000"/>
	<stop  offset="8.000000e-02" style="stop-color:#000000;stop-opacity:0.69"/>
	<stop  offset="0.21" style="stop-color:#000000;stop-opacity:0.32"/>
	<stop  offset="1" style="stop-color:#000000;stop-opacity:0"/>
</linearGradient>
<polygon class="st9" points="296.3,164.1 276.4,164.2 271.7,173.9 "/>
<linearGradient id="SVGID_8_" gradientUnits="userSpaceOnUse" x1="-60.5498" y1="352.9478" x2="-80.1098" y2="374.7978" gradientTransform="matrix(2.1085 0 0 -2.1085 234.8291 922.0838)">
	<stop  offset="1.000000e-02" style="stop-color:#000000"/>
	<stop  offset="8.000000e-02" style="stop-color:#000000;stop-opacity:0.69"/>
	<stop  offset="0.21" style="stop-color:#000000;stop-opacity:0.32"/>
	<stop  offset="1" style="stop-color:#000000;stop-opacity:0"/>
</linearGradient>
<polygon class="st10" points="78.8,161.7 106.4,161.7 88.9,146.9 66.4,146.9 "/>
<path class="st0" d="M155.4,123.9c0,0,0.7,13.3,3.4,20.2c1.6,4.2,2.8,8.6,3.4,13.1c-0.4,0.8,0.3,1.7,1.1,2.1c0.8,0.2,1.7,0.2,2.5,0
	l3.5-0.4c0.4,0,0.8-0.2,1.1-0.5c0.4-0.6-0.2-1.3-0.9-1.5c-0.7-0.2-1.3,0-2-0.3c-1.2-0.5-1.6-1.9-1.8-3.2l-1-5.5
	c-1.7-7.8-2.7-15.8-3-23.8c0-0.4,0-0.7-0.2-1.1c-0.4-0.6-0.9-1-1.6-1.2c-0.7-0.3-1.4-0.5-2.1-0.5c-0.8,0-1.5,0.4-1.8,1.2"/>
<path class="st2" d="M171.5,156.8l-0.9-0.1c-0.7-0.1-1.4-0.2-2.1-0.1c-0.3,0-0.6,0.2-0.6,0.5c-0.1,0.3-0.2,0.5-0.4,0.7
	c-0.4,0.3-0.9,0.4-1.4,0.3c-0.5,0-1-0.1-1.5-0.3c-0.5-0.2-0.9-0.5-1.4-0.6c-0.3-0.1-0.6-0.1-0.8,0c-0.1,0.1-0.2,0.2-0.3,0.4
	c-0.1,0.2-0.2,0.5-0.3,0.8c0,0.3,0,0.5,0.1,0.8c0.1,0.6,0.6,1,1.2,0.9c0.1,0,0.2,0,0.3-0.1l4.2-0.4c1.3-0.1,2.6-0.3,3.9-0.5
	c0.7-0.1,1.4-0.3,2.1-0.6c0,0,0.2,0,0.2-0.2s0-0.1,0-0.2c-0.6-0.8-1.5-1.2-2.5-1.3"/>
<path class="st0" d="M145.8,123.5c0,0-1.5,13.3,0,20.5c0.9,4.4,1.3,8.9,1.2,13.5c-0.5,0.7,0,1.7,0.7,2.1c0.8,0.4,1.6,0.6,2.5,0.5
	l3.5,0.1c0.4,0.1,0.8,0,1.2-0.3c0.4-0.5,0-1.3-0.6-1.6s-1.3-0.3-1.9-0.7c-1.1-0.7-1.2-2.1-1.3-3.4v-5.6c-0.4-7.9-0.1-15.9,0.9-23.8
	c0.1-0.4,0.1-0.7,0-1.1c-0.3-0.6-0.8-1.2-1.4-1.4c-0.6-0.4-1.4-0.7-2.1-0.9c-0.8-0.1-1.6,0.2-2,0.8"/>
<path class="st0" d="M166.6,75.1l2,1.1c0.7,0.4,2,1.6,2.8,1s0.5-2.6,0.5-3.4c0.1-2.6-0.1-5.3-0.6-7.9c-0.5-1.3-0.4-2.7,0.3-3.9
	c0.6-1,2-1.2,2.9-0.6c0.4,0.3,0.7,0.7,0.8,1.2c0.2,0.7,0.3,1.4,0.3,2.1c0.2,0.5,0.2,1.1,0,1.6c-0.2,0.2-0.3,0.5-0.4,0.7
	c-0.1,0.3-0.1,0.6,0,0.8l1.5,7.7c0.5,1.7,0.5,3.4,0,5.1c-1.2,2.2-3.7,3.3-6.1,2.7c-2.6-0.7-4.9-2-6.9-3.8c-0.2-0.2-0.5-0.4-0.3-0.7
	c0.1-0.1,0.2-0.2,0.3-0.2c0.8-0.3,1.5-0.7,2.1-1.4C166.3,76.7,166.6,75.9,166.6,75.1z"/>
<path class="st0" d="M162.4,62.4c-0.1,0.3-0.3,0.5-0.5,0.7c-0.4,0.2-0.8,0.2-1.2,0.2c-0.4,0-0.8,0.1-1.2,0.3
	c-0.1,0.2-0.2,0.4-0.1,0.6l0.2,2.6c0.1,0.2,0.1,0.4,0,0.6c-0.1,0.2-0.4,0.4-0.7,0.5c-0.9,0.3-2.1,0.5-2.8-0.3
	c-0.3-0.4-0.5-0.9-0.5-1.5c-0.7-3-0.8-6-0.5-9c0.1-1.9,1.1-3.6,2.6-4.7c1.4-0.8,3-1,4.6-0.6c0.7,0.2,1.3,0.7,1.6,1.3
	c0.2,0.5,0,0.9,0,1.4c-0.1,0.7-0.1,1.4,0,2.1c0,0.3,0.1,0.7,0.2,1c0.1,0.3,0.1,0.6,0.1,0.9c-0.1,0.5-0.3,1.1-0.6,1.5
	c-0.3,0.5-0.6,1.1-0.8,1.7C162.5,61.9,162.4,62.2,162.4,62.4z"/>
<path class="st11" d="M164.8,51.8c-0.3,1.1-1.2,2-2.3,2.3c-1.3,0.4-2.8,0.3-4.2,0.7s-1.3,1.3-1.3,2.3c0,0.5,0.1,1,0.2,1.4l0,0
	c0.1,0.3,0.1,0.6,0.1,0.9c0,0.6,0,1.3-0.2,1.9c-0.8,1.6-1.2,3.3-1.3,5.1c0.1,0.9,0.4,1.7,0.7,2.5c0.1,0.4,0.1,0.7,0.2,1.1
	c0,1.2-0.4,2.4-1.2,3.3c-0.2,0.2-0.4,0.5-0.6,0.7c-0.6,0.5-1.1,1-1.6,1.5c-0.4,0.6-0.6,1.4-1,2c-0.6,0.8-1.3,1.6-2.1,2.2l-0.4,0.3
	c-1.9,1.4-4.2,2.1-6.5,1.9c-0.9,0-1.8-0.3-2.6-0.7c-0.8-0.5-1.4-1.1-2-1.8c-1.3-1.6-2-3.4-2.3-5.4c-0.3-2,0.3-4.1,1.5-5.7
	c0.8-0.9,1.6-1.6,2.5-2.4c1.1-1,2-2.2,2.4-3.6c0.5-2.1-0.1-4.2,0.1-6.3c0.5-2.9,2.9-5.2,5.8-5.6c1.4,0.1,2.7-0.1,4-0.6
	c0.8-0.6,1.5-1.3,2.1-2.1c1.2-1.5,3.1-2.4,5-2.4c1.9,0,3.7,1.1,4.7,2.7C165.1,49.2,165.2,50.6,164.8,51.8z"/>
<linearGradient id="SVGID_9_" gradientUnits="userSpaceOnUse" x1="-12.8168" y1="383.5255" x2="-60.2768" y2="418.8155" gradientTransform="matrix(2.1085 0 0 -2.1085 220.0699 909.8126)">
	<stop  offset="1.000000e-02" style="stop-color:#000000"/>
	<stop  offset="0.13" style="stop-color:#000000;stop-opacity:0.69"/>
	<stop  offset="0.25" style="stop-color:#000000;stop-opacity:0.32"/>
	<stop  offset="1" style="stop-color:#000000;stop-opacity:0"/>
</linearGradient>
<path class="st12" d="M157.2,58.5L157.2,58.5c0,1,0,2.1,0,2.7c-0.8,1.6-1.2,3.3-1.3,5.1c0.1,0.9,0.4,1.7,0.7,2.5
	c-0.3,1.7-0.9,3.4-1.6,5c-0.3,0.7-0.7,1.4-1.2,2.1c-0.9,1.4-2.1,2.7-3.5,3.6l-0.4,0.3c-1.2,0.8-2.5,1.3-3.9,1.4
	c-2.5,0.8-5.1-0.6-5.9-3.1c-0.2-0.6-0.3-1.3-0.2-2c0.2-2.6,1.7-4.9,3.9-6.3c1.5-0.8,3-1.4,4.6-2c1.6-0.5,2.9-1.6,3.7-3.1
	c0.3-0.8,0.5-1.7,0.7-2.6c0.3-1.6,1.2-5.3,3.1-5.9c0.5-0.2,1,0,1.2,0.4c0,0.1,0.1,0.2,0.1,0.2C157.1,57.5,157.2,58,157.2,58.5z"/>
<path class="st2" d="M160.9,94.6c-0.2,6.5,2.1,12.7,3.9,18.8c1.5,5.2,3.1,12.4-3.9,14.3c-2.9,0.4-5.7,0.6-8.6,0.5
	c-2.1,0.2-4.2,0.7-6.5,0.9c-2.4,0.2-4.9-0.2-7.2-1c-0.8-0.3-1.5-0.7-2.1-1.3c-1.6-1.8-0.4-4.7,0.6-6.9c3.8-8.1,3.1-16.9,9.2-23.8
	c0.8-0.8,1.5-1.7,1.9-2.8c0.2-1,0.2-2.1,0.1-3.1c-0.4-3.4-0.4-6.7-0.2-10.1c0.2-3,1-6,2.3-8.8c0.5-1.3,1.2-2.4,2.1-3.5
	c1-1,2.2-1.6,3.6-1.8c1.4-0.1,2.7,0.5,3.6,1.6c2.1,3.2,5.5,3.9,8.1,6.8c0.1,0.1,0.2,0.3,0.3,0.5c0,0.2-0.1,0.4-0.2,0.6
	c-0.9,1.4-1.8,2.8-2.7,4.2c-0.3,0.5-0.6,0.9-0.9,1.3c-0.3,0.3-0.7,0.6-1,0.9c-0.8,1-1.3,2.3-1.5,3.6C161.3,88.6,161,91.6,160.9,94.6
	z"/>
<path class="st2" d="M156.1,158.6l-0.9-0.3c-0.7-0.3-1.4-0.4-2.1-0.5c-0.1,0-0.3,0-0.4,0c-0.1,0.1-0.3,0.2-0.3,0.4
	c-0.1,0.2-0.3,0.5-0.5,0.6c-0.5,0.2-1,0.2-1.5,0c-0.5-0.1-1-0.3-1.5-0.5c-0.4-0.3-0.8-0.6-1.3-0.8c-0.3-0.1-0.6-0.1-0.8,0
	c-0.1,0.1-0.3,0.2-0.4,0.3c-0.2,0.2-0.3,0.4-0.4,0.7c0,0.3,0,0.5,0,0.8c0,0.2,0.1,0.5,0.2,0.7c0.3,0.3,0.7,0.4,1.1,0.4l4.2,0.3
	c1.3,0,2.7,0.2,4,0.1c0.7,0,1.4-0.1,2.1-0.2c0.1,0,0.2-0.1,0.3-0.2c0,0,0-0.1,0-0.2c-0.5-0.9-1.3-1.5-2.3-1.7"/>
<linearGradient id="SVGID_10_" gradientUnits="userSpaceOnUse" x1="-50.9783" y1="389.3989" x2="6.5717" y2="376.6888" gradientTransform="matrix(2.1085 0 0 -2.1085 220.0699 909.8126)">
	<stop  offset="1.000000e-02" style="stop-color:#000000"/>
	<stop  offset="0.13" style="stop-color:#000000;stop-opacity:0.69"/>
	<stop  offset="0.25" style="stop-color:#000000;stop-opacity:0.32"/>
	<stop  offset="1" style="stop-color:#000000;stop-opacity:0"/>
</linearGradient>
<path class="st13" d="M166.2,121.7c-1.2,0.4-2.6,0.3-3.8-0.4c-1.8-1.4-3-3.6-3.1-5.9c-0.8-5-0.3-10.4-3-14.8c-1-1.2-1.6-2.7-1.8-4.2
	c0.2-1.6,1.7-2.7,2.5-4c0.8-1.6,1.3-3.3,1.3-5.1l0.9-9.9c0,0.8,3.7,2.6,5,3.9c-0.3,0.3-0.7,0.6-1,0.9c-0.8,1-1.3,2.3-1.5,3.6
	c-0.5,2.9-0.8,5.9-0.9,8.9c-0.2,6.5,2.1,12.7,3.9,18.8C165.8,116.1,166.3,118.9,166.2,121.7z"/>
<path class="st2" d="M183.5,56.9c0.2,2.6-0.2,5.2-1.3,7.6c-0.1,0.1-0.3,0.1-0.5,0.2c-0.1,0-0.3,0-0.4,0c-0.9-0.4-6-5-12.9-3.7
	c-1.3,0.3-2.7-0.5-3-1.8c-0.3-1.3,0.5-2.7,1.8-3c0.4-0.1,0.7-0.1,1.1,0c0,0,9.1-1.5,11.7-6.3c0.4-0.7,0.9-0.9,1.4-0.7
	c0.3,0.1,0.6,0.3,0.9,0.6l0,0C183.3,52,183.6,54.4,183.5,56.9z"/>
<linearGradient id="SVGID_11_" gradientUnits="userSpaceOnUse" x1="-22.7532" y1="405.9493" x2="-10.6332" y2="402.2193" gradientTransform="matrix(2.1085 0 0 -2.1085 220.0699 909.8126)">
	<stop  offset="1.000000e-02" style="stop-color:#000000"/>
	<stop  offset="0.13" style="stop-color:#000000;stop-opacity:0.69"/>
	<stop  offset="0.25" style="stop-color:#000000;stop-opacity:0.32"/>
	<stop  offset="1" style="stop-color:#000000;stop-opacity:0"/>
</linearGradient>
<path class="st14" d="M183.5,56.9c0.2,2.6-0.2,5.2-1.3,7.6c-0.1,0.1-0.2,0.2-0.4,0.2l0,0c-0.9-0.2-1.6-3.6-1.6-7.8s0.6-7.3,1.5-7.8
	c0.1,0,0.1,0,0.2,0c0.2,0,0.5,0.2,0.7,0.7l0,0C183.3,52.1,183.6,54.5,183.5,56.9z"/>
<path class="st5" d="M200.5,72.8l-5.9,21.2c-0.6,1.6-0.6,3.3,0,4.9c1.1,1.6,2.7,2.8,4.7,3.3c9.5,4,17.3,11,22.3,19.9
	c-1.5-2.7,7-12.1,8-14.3c2.6-5.8,0-7.9-3.9-12.8C218.6,86.3,210.6,78,200.5,72.8z"/>
<path class="st5" d="M134.3,225.6l34.1,5.3c3.2,0.9,6.6-0.1,8.8-2.6c9.3-7.5,18.8-15.3,24.5-25.8l-23.9,2.3
	c-6.9,0.7-13.2,8.1-19.3,11.5c-3.9,2.2-8,4-12.2,5.7C143.4,223,137.5,226.1,134.3,225.6z"/>
<path class="st5" d="M98.8,116.5c0.1-0.2,0.3-0.4,0.5-0.5c0.2-0.1,0.5-0.1,0.7,0c3.9,0.5,7.8,1.1,11.6,1.7c-1.3,2-1.9,4.4-1.4,6.8
	c0.5,2.4,1.6,4.5,3.4,6.2c-0.9,0-1.8-0.2-2.7-0.5l-6.8-2c-1.4-0.4-3.9-0.7-4.7-2.1c-0.5-1.3-0.8-2.7-0.9-4.1
	C97.8,120.2,98,118.3,98.8,116.5z"/>
<linearGradient id="SVGID_12_" gradientUnits="userSpaceOnUse" x1="-63.584" y1="370.8473" x2="-69.034" y2="329.8473" gradientTransform="matrix(2.1085 0 0 -2.1085 234.8291 922.0838)">
	<stop  offset="1.000000e-02" style="stop-color:#000000"/>
	<stop  offset="8.000000e-02" style="stop-color:#000000;stop-opacity:0.69"/>
	<stop  offset="0.21" style="stop-color:#000000;stop-opacity:0.32"/>
	<stop  offset="1" style="stop-color:#000000;stop-opacity:0"/>
</linearGradient>
<polygon class="st15" points="84.7,184.4 96.1,167.1 107.4,166.7 92.6,184.4 "/>
<linearGradient id="SVGID_13_" gradientUnits="userSpaceOnUse" x1="-70.134" y1="370.8473" x2="-75.584" y2="329.8473" gradientTransform="matrix(2.1085 0 0 -2.1085 234.8291 922.0838)">
	<stop  offset="1.000000e-02" style="stop-color:#000000"/>
	<stop  offset="8.000000e-02" style="stop-color:#000000;stop-opacity:0.69"/>
	<stop  offset="0.21" style="stop-color:#000000;stop-opacity:0.32"/>
	<stop  offset="1" style="stop-color:#000000;stop-opacity:0"/>
</linearGradient>
<polygon class="st16" points="70.9,184.4 83.3,167.1 93.6,166.7 78.8,184.4 "/>
<linearGradient id="SVGID_14_" gradientUnits="userSpaceOnUse" x1="-61.5263" y1="-2883.3008" x2="-66.2563" y2="-2918.8909" gradientTransform="matrix(2.1085 0 0 2.1085 220.0699 6263.6421)">
	<stop  offset="1.000000e-02" style="stop-color:#000000"/>
	<stop  offset="8.000000e-02" style="stop-color:#000000;stop-opacity:0.69"/>
	<stop  offset="0.21" style="stop-color:#000000;stop-opacity:0.32"/>
	<stop  offset="1" style="stop-color:#000000;stop-opacity:0"/>
</linearGradient>
<polygon class="st17" points="74.4,146.9 90.1,161.7 98.3,161.7 82.2,146.9 "/>
</svg>
